# xmcd
# Copyright (C) 1995-1998 Ti Kan
#
# Track frame offsets:
#       150
#       11497
#       23666
#       39622
#       54534
#       69409
#       86224
#       99960
#       118586
#       130509
#
# Disc length: 1888 seconds
#
# Revision: 0
# Processed by: cddbd v1.5.2PL0 Copyright (c) Steve Scherf et al.
# Submitted via: CD-Import v1.0
#
DISCID=76075e0a
DTITLE=Homestories - Click-Click Clack-Clack
DYEAR=09
DGENRE=
TTITLE0=Hello Hello
TTITLE1=Firemen
TTITLE2=Loud And Clear
TTITLE3=Lucky, The Rollerskater
TTITLE4=Summer Residence
TTITLE5=Istanbul
TTITLE6=Party Girl
TTITLE7=Mini Bar
TTITLE8=Everything
TTITLE9=Thank You Goodbye
EXTD=
EXTT0=
EXTT1=
EXTT2=
EXTT3=
EXTT4=
EXTT5=
EXTT6=
EXTT7=
EXTT8=
EXTT9=
PLAYORDER=
